<svg width="23" height="23" viewBox="0 0 23 23" fill="none" xmlns="http://www.w3.org/2000/svg">
<path d="M18.8895 1.19873H4.88551C3.92273 1.19873 3.13501 1.98645 3.13501 2.94923V20.4542C3.13501 21.417 3.92273 22.2047 4.88551 22.2047H18.8895C19.8522 22.2047 20.64 21.417 20.64 20.4542V2.94923C20.64 1.98645 19.8522 1.19873 18.8895 1.19873ZM8.3865 18.7037C8.3865 19.1851 7.99263 19.5789 7.51125 19.5789H5.76075C5.27937 19.5789 4.88551 19.1851 4.88551 18.7037V18.2661C4.88551 17.7847 5.27937 17.3908 5.76075 17.3908H7.51125C7.99263 17.3908 8.3865 17.7847 8.3865 18.2661V18.7037ZM8.3865 15.2027C8.3865 15.6841 7.99263 16.0779 7.51125 16.0779H5.76075C5.27937 16.0779 4.88551 15.6841 4.88551 15.2027V14.7651C4.88551 14.2837 5.27937 13.8898 5.76075 13.8898H7.51125C7.99263 13.8898 8.3865 14.2837 8.3865 14.7651V15.2027ZM8.3865 11.7017C8.3865 12.1831 7.99263 12.577 7.51125 12.577H5.76075C5.27937 12.577 4.88551 12.1831 4.88551 11.7017V11.2641C4.88551 10.7827 5.27937 10.3888 5.76075 10.3888H7.51125C7.99263 10.3888 8.3865 10.7827 8.3865 11.2641V11.7017ZM13.638 18.7037C13.638 19.1851 13.2441 19.5789 12.7627 19.5789H11.0122C10.5309 19.5789 10.137 19.1851 10.137 18.7037V18.2661C10.137 17.7847 10.5309 17.3908 11.0122 17.3908H12.7627C13.2441 17.3908 13.638 17.7847 13.638 18.2661V18.7037ZM13.638 15.2027C13.638 15.6841 13.2441 16.0779 12.7627 16.0779H11.0122C10.5309 16.0779 10.137 15.6841 10.137 15.2027V14.7651C10.137 14.2837 10.5309 13.8898 11.0122 13.8898H12.7627C13.2441 13.8898 13.638 14.2837 13.638 14.7651V15.2027ZM13.638 11.7017C13.638 12.1831 13.2441 12.577 12.7627 12.577H11.0122C10.5309 12.577 10.137 12.1831 10.137 11.7017V11.2641C10.137 10.7827 10.5309 10.3888 11.0122 10.3888H12.7627C13.2441 10.3888 13.638 10.7827 13.638 11.2641V11.7017ZM18.8895 18.7037C18.8895 19.1851 18.4956 19.5789 18.0142 19.5789H16.2637C15.7823 19.5789 15.3885 19.1851 15.3885 18.7037V18.2661C15.3885 17.7847 15.7823 17.3908 16.2637 17.3908H18.0142C18.4956 17.3908 18.8895 17.7847 18.8895 18.2661V18.7037ZM18.8895 15.2027C18.8895 15.6841 18.4956 16.0779 18.0142 16.0779H16.2637C15.7823 16.0779 15.3885 15.6841 15.3885 15.2027V14.7651C15.3885 14.2837 15.7823 13.8898 16.2637 13.8898H18.0142C18.4956 13.8898 18.8895 14.2837 18.8895 14.7651V15.2027ZM18.8895 11.7017C18.8895 12.1831 18.4956 12.577 18.0142 12.577H16.2637C15.7823 12.577 15.3885 12.1831 15.3885 11.7017V11.2641C15.3885 10.7827 15.7823 10.3888 16.2637 10.3888H18.0142C18.4956 10.3888 18.8895 10.7827 18.8895 11.2641V11.7017ZM18.8895 7.76309C18.8895 8.24447 18.4956 8.63834 18.0142 8.63834H5.76075C5.27937 8.63834 4.88551 8.24447 4.88551 7.76309V4.2621C4.88551 3.78071 5.27937 3.38685 5.76075 3.38685H18.0142C18.4956 3.38685 18.8895 3.78071 18.8895 4.2621V7.76309Z" fill="#091E42"/>
</svg>
