<svg width="20" height="21" viewBox="0 0 20 21" fill="none" xmlns="http://www.w3.org/2000/svg">
<path d="M9.99998 8.83341C13.3133 8.83341 16.6666 7.68841 16.6666 5.50008C16.6666 3.31175 13.3133 2.16675 9.99998 2.16675C6.68665 2.16675 3.33331 3.31175 3.33331 5.50008C3.33331 7.68841 6.68665 8.83341 9.99998 8.83341Z" fill="#243757"/>
<path d="M3.33331 8.83341C3.33331 11.0217 6.68665 12.1667 9.99998 12.1667C13.3133 12.1667 16.6666 11.0217 16.6666 8.83341V7.16675C16.6666 9.35508 13.3133 10.5001 9.99998 10.5001C6.68665 10.5001 3.33331 9.35508 3.33331 7.16675V8.83341Z" fill="#243757"/>
<path d="M3.33331 12.1667C3.33331 14.355 6.68665 15.5 9.99998 15.5C13.3133 15.5 16.6666 14.355 16.6666 12.1667V10.5C16.6666 12.6883 13.3133 13.8333 9.99998 13.8333C6.68665 13.8333 3.33331 12.6883 3.33331 10.5V12.1667Z" fill="#243757"/>
<path d="M3.33331 15.4999C3.33331 17.6883 6.68665 18.8333 9.99998 18.8333C13.3133 18.8333 16.6666 17.6883 16.6666 15.4999V13.8333C16.6666 16.0216 13.3133 17.1666 9.99998 17.1666C6.68665 17.1666 3.33331 16.0216 3.33331 13.8333V15.4999Z" fill="#243757"/>
</svg>
