<svg width="30" height="30" viewBox="0 0 30 30" fill="none" xmlns="http://www.w3.org/2000/svg">
<path d="M15.0002 28.5666C15.5251 28.5545 16.0289 28.3572 16.4223 28.0095C16.8158 27.6618 17.0736 27.1861 17.1502 26.6666H12.7668C12.8456 27.2002 13.1154 27.6871 13.5263 28.0366C13.9371 28.3861 14.4609 28.5744 15.0002 28.5666Z" fill="#243757"/>
<path d="M27.0915 23.1916C26.2879 22.4752 25.5844 21.654 24.9998 20.75C24.3617 19.5021 23.9792 18.1393 23.8748 16.7416V12.625C23.8715 12.1249 23.8269 11.626 23.7415 11.1333C23.0856 11.0022 22.4552 10.7658 21.8748 10.4333C22.0961 11.1457 22.2085 11.8874 22.2082 12.6333V16.75C22.3103 18.455 22.7793 20.1179 23.5832 21.625C24.1585 22.5366 24.8412 23.376 25.6165 24.125H4.27484C5.05018 23.376 5.73284 22.5366 6.30817 21.625C7.11201 20.1179 7.58103 18.455 7.68317 16.75V12.625C7.67878 11.6605 7.86468 10.7047 8.23021 9.81223C8.59573 8.91974 9.13372 8.10812 9.81335 7.42385C10.493 6.73957 11.3009 6.19607 12.1909 5.82447C13.0809 5.45287 14.0354 5.26047 14.9998 5.25829C16.4113 5.25942 17.7911 5.67684 18.9665 6.45829C18.8369 5.98245 18.7642 5.49292 18.7498 4.99996V4.47496C17.8797 4.04693 16.9449 3.76537 15.9832 3.64163V2.59163C15.9832 2.29657 15.866 2.0136 15.6573 1.80497C15.4487 1.59634 15.1657 1.47913 14.8707 1.47913C14.5756 1.47913 14.2926 1.59634 14.084 1.80497C13.8754 2.0136 13.7582 2.29657 13.7582 2.59163V3.68329C11.6046 3.98709 9.63365 5.05975 8.20919 6.70324C6.78473 8.34673 6.00294 10.4501 6.00817 12.625V16.7416C5.9038 18.1393 5.52132 19.5021 4.88317 20.75C4.30891 21.6519 3.61667 22.4731 2.82484 23.1916C2.73595 23.2697 2.66471 23.3658 2.61585 23.4736C2.567 23.5814 2.54165 23.6983 2.5415 23.8166V24.95C2.5415 25.171 2.6293 25.3829 2.78558 25.5392C2.94186 25.6955 3.15382 25.7833 3.37484 25.7833H26.5415C26.7625 25.7833 26.9745 25.6955 27.1308 25.5392C27.287 25.3829 27.3748 25.171 27.3748 24.95V23.8166C27.3747 23.6983 27.3493 23.5814 27.3005 23.4736C27.2516 23.3658 27.1804 23.2697 27.0915 23.1916Z" fill="#243757"/>
<path d="M25.0002 9.16671C27.3013 9.16671 29.1668 7.30123 29.1668 5.00004C29.1668 2.69885 27.3013 0.833374 25.0002 0.833374C22.699 0.833374 20.8335 2.69885 20.8335 5.00004C20.8335 7.30123 22.699 9.16671 25.0002 9.16671Z" fill="#413DE5"/>
</svg>
