<svg width="26" height="25" viewBox="0 0 26 25" fill="none" xmlns="http://www.w3.org/2000/svg">
<path d="M5.70834 22.9168C5.13542 22.9168 4.64479 22.7127 4.23646 22.3043C3.82813 21.896 3.62431 21.4057 3.625 20.8335V6.25016H5.70834V20.8335H17.1667V22.9168H5.70834ZM9.875 18.7502C9.30209 18.7502 8.81146 18.546 8.40313 18.1377C7.99479 17.7293 7.79097 17.2391 7.79167 16.6668V4.16683C7.79167 3.59391 7.99584 3.10329 8.40417 2.69496C8.8125 2.28662 9.30278 2.0828 9.875 2.0835H19.25C19.8229 2.0835 20.3135 2.28766 20.7219 2.696C21.1302 3.10433 21.334 3.59461 21.3333 4.16683V16.6668C21.3333 17.2397 21.1292 17.7304 20.7208 18.1387C20.3125 18.547 19.8222 18.7509 19.25 18.7502H9.875ZM9.875 16.6668H19.25V4.16683H9.875V16.6668Z" fill="#413DE5"/>
</svg>
