<svg width="25" height="25" viewBox="0 0 25 25" fill="none" xmlns="http://www.w3.org/2000/svg">
<path d="M0.78125 12.5C0.78125 17.6172 4.0625 21.9531 8.59375 23.5547V1.44531C4.0625 3.04688 0.78125 7.38281 0.78125 12.5ZM24.2188 12.5C24.2188 7.38281 20.9766 3.04688 16.4062 1.44531V23.5547C20.9766 21.9531 24.2188 17.6172 24.2188 12.5Z" fill="#83BF4F"/>
<path d="M8.59375 23.5547C9.80469 23.9844 11.1328 24.2188 12.5 24.2188C13.8672 24.2188 15.1953 23.9844 16.4062 23.5547V1.44531C15.1953 1.01563 13.8672 0.78125 12.5 0.78125C11.1328 0.78125 9.80469 1.01563 8.59375 1.44531V23.5547Z" fill="#F9F9F9"/>
</svg>
