<svg width="30" height="31" viewBox="0 0 30 31" fill="none" xmlns="http://www.w3.org/2000/svg">
<path d="M10.5 13.8761C10.5 13.0804 10.8161 12.3174 11.3787 11.7548C11.9413 11.1922 12.7044 10.8761 13.5 10.8761C14.2956 10.8761 15.0587 11.1922 15.6213 11.7548C16.1839 12.3174 16.5 13.0804 16.5 13.8761C16.5 14.6717 16.1839 15.4348 15.6213 15.9974C15.0587 16.56 14.2956 16.8761 13.5 16.8761C12.7044 16.8761 11.9413 16.56 11.3787 15.9974C10.8161 15.4348 10.5 14.6717 10.5 13.8761ZM13.5 12.3761C13.1022 12.3761 12.7206 12.5341 12.4393 12.8154C12.158 13.0967 12 13.4783 12 13.8761C12 14.2739 12.158 14.6555 12.4393 14.9368C12.7206 15.2181 13.1022 15.3761 13.5 15.3761C13.8978 15.3761 14.2794 15.2181 14.5607 14.9368C14.842 14.6555 15 14.2739 15 13.8761C15 13.4783 14.842 13.0967 14.5607 12.8154C14.2794 12.5341 13.8978 12.3761 13.5 12.3761ZM5.25 6.3761C4.65326 6.3761 4.08097 6.61315 3.65901 7.03511C3.23705 7.45706 3 8.02936 3 8.6261V19.1261C3 19.7228 3.23705 20.2951 3.65901 20.7171C4.08097 21.139 4.65326 21.3761 5.25 21.3761H21.75C22.3467 21.3761 22.919 21.139 23.341 20.7171C23.7629 20.2951 24 19.7228 24 19.1261V8.6261C24 8.02936 23.7629 7.45706 23.341 7.03511C22.919 6.61315 22.3467 6.3761 21.75 6.3761H5.25ZM4.5 8.6261C4.5 8.42719 4.57902 8.23642 4.71967 8.09577C4.86032 7.95512 5.05109 7.8761 5.25 7.8761H7.5V9.3761C7.5 9.77392 7.34196 10.1555 7.06066 10.4368C6.77936 10.7181 6.39782 10.8761 6 10.8761H4.5V8.6261ZM4.5 12.3761H6C6.79565 12.3761 7.55871 12.06 8.12132 11.4974C8.68393 10.9348 9 10.1717 9 9.3761V7.8761H18V9.3761C18 10.1717 18.3161 10.9348 18.8787 11.4974C19.4413 12.06 20.2044 12.3761 21 12.3761H22.5V15.3761H21C20.2044 15.3761 19.4413 15.6922 18.8787 16.2548C18.3161 16.8174 18 17.5804 18 18.3761V19.8761H9V18.3761C9 17.5804 8.68393 16.8174 8.12132 16.2548C7.55871 15.6922 6.79565 15.3761 6 15.3761H4.5V12.3761ZM19.5 7.8761H21.75C21.9489 7.8761 22.1397 7.95512 22.2803 8.09577C22.421 8.23642 22.5 8.42719 22.5 8.6261V10.8761H21C20.6022 10.8761 20.2206 10.7181 19.9393 10.4368C19.658 10.1555 19.5 9.77392 19.5 9.3761V7.8761ZM22.5 16.8761V19.1261C22.5 19.325 22.421 19.5158 22.2803 19.6564C22.1397 19.7971 21.9489 19.8761 21.75 19.8761H19.5V18.3761C19.5 17.9783 19.658 17.5967 19.9393 17.3154C20.2206 17.0341 20.6022 16.8761 21 16.8761H22.5ZM7.5 19.8761H5.25C5.05109 19.8761 4.86032 19.7971 4.71967 19.6564C4.57902 19.5158 4.5 19.325 4.5 19.1261V16.8761H6C6.39782 16.8761 6.77936 17.0341 7.06066 17.3154C7.34196 17.5967 7.5 17.9783 7.5 18.3761V19.8761ZM25.5 19.1261C25.5 20.1207 25.1049 21.0745 24.4016 21.7777C23.6984 22.481 22.7446 22.8761 21.75 22.8761H6.1275C6.28266 23.315 6.57012 23.6949 6.95026 23.9636C7.3304 24.2322 7.78451 24.3763 8.25 24.3761H21.75C23.1424 24.3761 24.4777 23.823 25.4623 22.8384C26.4469 21.8538 27 20.5185 27 19.1261V11.6261C27.0002 11.1606 26.8561 10.7065 26.5875 10.3264C26.3188 9.94622 25.9389 9.65876 25.5 9.5036V19.1261Z" fill="#413DE5"/>
</svg>
