<svg width="23" height="23" viewBox="0 0 23 23" fill="none" xmlns="http://www.w3.org/2000/svg">
<path d="M12.469 1.15141V2.86088H13.816C14.2318 2.86088 14.6407 2.97029 15.0017 3.17679L16.7659 4.18333C16.8178 4.21341 16.8753 4.22846 16.9355 4.22846H19.9906C20.2626 4.22846 20.5235 4.33652 20.7159 4.52887C20.9082 4.72122 21.0163 4.98211 21.0163 5.25414C21.0163 5.52616 20.9082 5.78705 20.7159 5.9794C20.5235 6.17176 20.2626 6.27982 19.9906 6.27982H19.4067L22.2936 12.6965C22.3789 12.8863 22.4045 13.0976 22.3668 13.3023C22.3292 13.507 22.2302 13.6954 22.083 13.8425L21.3582 13.1177L22.0816 13.8439L22.0803 13.8466L22.0775 13.8493L22.0693 13.8575L22.0611 13.8644L22.0474 13.8781L21.9859 13.9328C21.6987 14.1735 21.3828 14.38 21.0477 14.5482C20.4091 14.8682 19.4846 15.1691 18.2811 15.1691C17.3232 15.1804 16.3758 14.9677 15.5145 14.5482C15.1791 14.38 14.8642 14.1735 14.5764 13.9328L14.5148 13.8781L14.493 13.8575L14.4848 13.8493L14.4793 13.8439V13.8425C14.3321 13.6954 14.2331 13.507 14.1954 13.3023C14.1578 13.0976 14.1834 12.8863 14.2687 12.6965L17.157 6.27982H16.9355C16.5183 6.27982 16.1094 6.17178 15.7484 5.96391L13.9842 4.95737C13.9327 4.92753 13.8742 4.91195 13.8146 4.91224H12.469V17.9042H15.8879C16.1599 17.9042 16.4208 18.0123 16.6132 18.2046C16.8055 18.397 16.9136 18.6579 16.9136 18.9299C16.9136 19.2019 16.8055 19.4628 16.6132 19.6551C16.4208 19.8475 16.1599 19.9556 15.8879 19.9556H6.99866C6.72663 19.9556 6.46574 19.8475 6.27339 19.6551C6.08104 19.4628 5.97298 19.2019 5.97298 18.9299C5.97298 18.6579 6.08104 18.397 6.27339 18.2046C6.46574 18.0123 6.72663 17.9042 6.99866 17.9042H10.4176V4.91224H9.0719C9.01237 4.91195 8.95383 4.92753 8.90232 4.95737L7.13952 5.96528C6.77711 6.17041 6.36821 6.27982 5.9511 6.27982H5.72955L8.61787 12.6965C8.70318 12.8863 8.72872 13.0976 8.6911 13.3023C8.65349 13.507 8.55449 13.6954 8.40726 13.8425L7.68245 13.1177L8.40589 13.8439L8.40452 13.8466L8.40179 13.8493L8.39358 13.8575L8.3717 13.8781L8.31016 13.9328C8.02297 14.1735 7.70706 14.38 7.37201 14.5482C6.73335 14.8682 5.80887 15.1691 4.6054 15.1691C3.64744 15.1804 2.70007 14.9677 1.8388 14.5482C1.50331 14.38 1.18848 14.1735 0.900644 13.9328L0.839103 13.8781L0.817222 13.8575L0.809017 13.8493L0.803546 13.8439V13.8425C0.656316 13.6954 0.557318 13.507 0.519701 13.3023C0.482084 13.0976 0.507628 12.8863 0.59294 12.6965L3.48126 6.27982H2.89594C2.62391 6.27982 2.36302 6.17176 2.17067 5.9794C1.97832 5.78705 1.87025 5.52616 1.87025 5.25414C1.87025 4.98211 1.97832 4.72122 2.17067 4.52887C2.36302 4.33652 2.62391 4.22846 2.89594 4.22846H5.9511C6.01106 4.22873 6.07003 4.21316 6.12204 4.18333L7.88348 3.17542C8.24589 2.97029 8.65479 2.86088 9.0719 2.86088H10.4176V1.15141C10.4176 0.879386 10.5257 0.6185 10.718 0.426147C10.9104 0.233795 11.1712 0.125732 11.4433 0.125732C11.7153 0.125732 11.9762 0.233795 12.1685 0.426147C12.3609 0.6185 12.469 0.879386 12.469 1.15141ZM16.4965 12.7443C16.8862 12.929 17.4784 13.1177 18.2811 13.1177C19.0839 13.1177 19.6761 12.929 20.0658 12.7443L18.2811 8.77838L16.4965 12.7443ZM2.82072 12.7443C3.21048 12.929 3.80264 13.1177 4.6054 13.1177C5.40817 13.1177 6.00033 12.929 6.39009 12.7443L4.6054 8.77838L2.82072 12.7443Z" fill="#091E42"/>
</svg>
