<svg width="30" height="29" viewBox="0 0 30 29" fill="none" xmlns="http://www.w3.org/2000/svg">
<path d="M7.90772 26.0949C7.26319 26.0949 6.71123 25.8652 6.25186 25.4058C5.79248 24.9464 5.56319 24.3949 5.56397 23.7511V12.0324C5.56397 11.3878 5.79365 10.8359 6.25303 10.3765C6.7124 9.91712 7.26397 9.68782 7.90772 9.6886H9.07959V7.34485C9.07959 5.72376 9.65108 4.34173 10.794 3.19876C11.937 2.05579 13.3187 1.48469 14.939 1.48547C16.5601 1.48547 17.9421 2.05696 19.0851 3.19993C20.228 4.3429 20.7991 5.72454 20.7983 7.34485V9.6886H21.9702C22.6148 9.6886 23.1667 9.91829 23.6261 10.3777C24.0855 10.837 24.3148 11.3886 24.314 12.0324V23.7511C24.314 24.3956 24.0843 24.9476 23.6249 25.407C23.1655 25.8663 22.614 26.0956 21.9702 26.0949H7.90772ZM7.90772 23.7511H21.9702V12.0324H7.90772V23.7511ZM14.939 20.2355C15.5835 20.2355 16.1355 20.0058 16.5948 19.5464C17.0542 19.087 17.2835 18.5355 17.2827 17.8917C17.2827 17.2472 17.053 16.6952 16.5937 16.2359C16.1343 15.7765 15.5827 15.5472 14.939 15.548C14.2944 15.548 13.7425 15.7777 13.2831 16.237C12.8237 16.6964 12.5944 17.248 12.5952 17.8917C12.5952 18.5363 12.8249 19.0882 13.2843 19.5476C13.7437 20.007 14.2952 20.2363 14.939 20.2355ZM11.4233 9.6886H18.4546V7.34485C18.4546 6.36829 18.1128 5.53821 17.4292 4.85462C16.7456 4.17102 15.9155 3.82923 14.939 3.82923C13.9624 3.82923 13.1323 4.17102 12.4487 4.85462C11.7651 5.53821 11.4233 6.36829 11.4233 7.34485V9.6886Z" fill="#413DE5"/>
</svg>
