<svg width="20" height="21" viewBox="0 0 20 21" fill="none" xmlns="http://www.w3.org/2000/svg">
<path d="M9.99998 3.83325C10.884 3.83325 11.7319 4.18444 12.357 4.80956C12.9821 5.43468 13.3333 6.28253 13.3333 7.16659C13.3333 8.05064 12.9821 8.89849 12.357 9.52361C11.7319 10.1487 10.884 10.4999 9.99998 10.4999C9.11592 10.4999 8.26808 10.1487 7.64296 9.52361C7.01784 8.89849 6.66665 8.05064 6.66665 7.16659C6.66665 6.28253 7.01784 5.43468 7.64296 4.80956C8.26808 4.18444 9.11592 3.83325 9.99998 3.83325ZM9.99998 12.1666C13.6833 12.1666 16.6666 13.6583 16.6666 15.4999V17.1666H3.33331V15.4999C3.33331 13.6583 6.31665 12.1666 9.99998 12.1666Z" fill="#243757"/>
</svg>
