<svg width="28" height="29" viewBox="0 0 28 29" fill="none" xmlns="http://www.w3.org/2000/svg">
<path d="M25.4451 12.1675C24.9892 10.7999 23.6217 9.88816 22.2541 9.88816C20.3167 9.88816 18.8352 11.3697 18.8352 13.3071C18.8352 14.7886 19.7469 16.0422 21.1145 16.4981V18.4355C21.1145 21.2846 18.8352 23.5639 15.986 23.5639C13.1369 23.5639 10.8576 21.2846 10.8576 18.4355V17.7517C14.1626 17.1819 16.5559 14.3328 16.5559 11.0278V4.18994C16.5559 3.50615 16.1 3.05029 15.4162 3.05029H13.1369C12.4531 3.05029 11.9973 3.50615 11.9973 4.18994C11.9973 4.87373 12.4531 5.32958 13.1369 5.32958H14.2766V11.0278C14.2766 13.535 12.2252 15.5864 9.718 15.5864C7.21078 15.5864 5.15942 13.535 5.15942 11.0278V5.32958H6.29906C6.98285 5.32958 7.43871 4.87373 7.43871 4.18994C7.43871 3.50615 6.98285 3.05029 6.29906 3.05029H4.01977C3.33599 3.05029 2.88013 3.50615 2.88013 4.18994V11.0278C2.88013 14.3328 5.27338 17.1819 8.57835 17.7517V18.4355C8.57835 22.5382 11.8833 25.8432 15.986 25.8432C20.0888 25.8432 23.3937 22.5382 23.3937 18.4355V16.4981C25.2172 15.9283 26.1289 13.9909 25.4451 12.1675Z" fill="#091E42"/>
</svg>
