<svg width="30" height="30" viewBox="0 0 30 30" fill="none" xmlns="http://www.w3.org/2000/svg">
<path d="M20.3831 1.90356C20.6243 1.96379 20.8316 2.11731 20.9596 2.33038C21.0876 2.54345 21.1257 2.79863 21.0656 3.03981L20.5969 4.91481C20.5694 5.0367 20.5179 5.15188 20.4453 5.25358C20.3728 5.35528 20.2806 5.44144 20.1742 5.50701C20.0679 5.57258 19.9495 5.61623 19.826 5.6354C19.7026 5.65456 19.5765 5.64885 19.4553 5.61861C19.3341 5.58836 19.2201 5.53419 19.1201 5.45928C19.0201 5.38437 18.9361 5.29023 18.873 5.18238C18.81 5.07454 18.7691 4.95518 18.7528 4.8313C18.7365 4.70743 18.7451 4.58155 18.7781 4.46106L19.2469 2.58606C19.3071 2.34491 19.4606 2.13755 19.6737 2.00957C19.8868 1.88159 20.1419 1.84345 20.3831 1.90356ZM25.9762 4.02418C26.0636 4.11127 26.1328 4.21472 26.1801 4.32862C26.2273 4.44251 26.2517 4.56462 26.2517 4.68793C26.2517 4.81124 26.2273 4.93335 26.1801 5.04724C26.1328 5.16114 26.0636 5.2646 25.9762 5.35168L24.1012 7.22668C24.0141 7.31372 23.9106 7.38274 23.7968 7.4298C23.6829 7.47686 23.561 7.50104 23.4378 7.50095C23.3146 7.50086 23.1926 7.47652 23.0789 7.4293C22.9651 7.38208 22.8617 7.31291 22.7747 7.22574C22.6876 7.13858 22.6186 7.03512 22.5716 6.92128C22.5245 6.80744 22.5003 6.68545 22.5004 6.56227C22.5005 6.43909 22.5249 6.31713 22.5721 6.20335C22.6193 6.08958 22.6885 5.98622 22.7756 5.89918L24.6506 4.02418C24.8264 3.84843 25.0648 3.74969 25.3134 3.74969C25.562 3.74969 25.8004 3.84843 25.9762 4.02418ZM11.7825 24.4354C12.2532 25.2181 12.9934 25.8021 13.8642 26.0778C14.7349 26.3535 15.6763 26.3019 16.5117 25.9327C17.3471 25.5636 18.0191 24.9023 18.4015 24.0728C18.7839 23.2434 18.8505 22.3029 18.5887 21.4279L11.7825 24.4354ZM10.0575 25.1986L8.18625 26.0254C7.70246 26.2398 7.16518 26.3029 6.64489 26.2065C6.12459 26.1102 5.64556 25.8588 5.27062 25.4854L4.52062 24.7354C4.14702 24.3635 3.89462 23.8872 3.79658 23.3692C3.69853 22.8512 3.75942 22.3157 3.97125 21.8329L11.2294 5.31606C11.4015 4.9262 11.666 4.58413 12 4.31939C12.334 4.05466 12.7274 3.87522 13.1463 3.79658C13.5651 3.71794 13.9968 3.74246 14.4041 3.86804C14.8113 3.99361 15.1819 4.21645 15.4838 4.51731L25.4812 14.4848C25.7824 14.7852 26.0058 15.1545 26.132 15.5608C26.2582 15.967 26.2834 16.3979 26.2055 16.816C26.1275 17.2342 25.9488 17.6271 25.6847 17.9606C25.4206 18.294 25.0792 18.5581 24.69 18.7298L20.3119 20.6648C20.7747 21.9986 20.719 23.4576 20.1559 24.7523C19.5928 26.0469 18.5635 27.0825 17.2723 27.6533C15.981 28.2242 14.5224 28.2887 13.1858 27.8339C11.8493 27.3792 10.7326 26.4385 10.0575 25.1986ZM27.1875 9.37543H25.3125C25.0639 9.37543 24.8254 9.4742 24.6496 9.65002C24.4738 9.82583 24.375 10.0643 24.375 10.3129C24.375 10.5616 24.4738 10.8 24.6496 10.9758C24.8254 11.1517 25.0639 11.2504 25.3125 11.2504H27.1875C27.4361 11.2504 27.6746 11.1517 27.8504 10.9758C28.0262 10.8 28.125 10.5616 28.125 10.3129C28.125 10.0643 28.0262 9.82583 27.8504 9.65002C27.6746 9.4742 27.4361 9.37543 27.1875 9.37543ZM12.9469 6.07168L5.68687 22.5867C5.62685 22.7233 5.60959 22.8748 5.63737 23.0214C5.66515 23.168 5.73666 23.3028 5.8425 23.4079L6.59437 24.1579C6.70152 24.2644 6.83831 24.3361 6.98686 24.3635C7.1354 24.3909 7.28877 24.3729 7.42687 24.3117L23.9306 17.0142C24.0409 16.9657 24.1376 16.891 24.2125 16.7966C24.2873 16.7022 24.3381 16.591 24.3602 16.4726C24.3824 16.3542 24.3753 16.2322 24.3397 16.1171C24.304 16.0021 24.2409 15.8974 24.1556 15.8123L14.1619 5.84481C14.0758 5.75927 13.9703 5.69588 13.8544 5.66008C13.7385 5.62428 13.6156 5.61713 13.4963 5.63926C13.377 5.66138 13.2649 5.71212 13.1695 5.78711C13.0741 5.8621 12.9984 5.9591 12.9487 6.06981L12.9469 6.07168Z" fill="#413DE5"/>
</svg>
