<svg width="25" height="26" viewBox="0 0 25 26" fill="none" xmlns="http://www.w3.org/2000/svg">
<path d="M3.125 10.9167V8.83333C3.125 8.2808 3.34449 7.75089 3.73519 7.36019C4.12589 6.96949 4.6558 6.75 5.20833 6.75H7.29167M3.125 10.9167C4.51354 10.9167 7.29167 10.0833 7.29167 6.75M3.125 10.9167V15.0833M7.29167 6.75H17.7083M3.125 15.0833V17.1667C3.125 17.7192 3.34449 18.2491 3.73519 18.6398C4.12589 19.0305 4.6558 19.25 5.20833 19.25H7.29167M3.125 15.0833C4.51354 15.0833 7.29167 15.9167 7.29167 19.25M21.875 10.9167V8.83333C21.875 8.2808 21.6555 7.75089 21.2648 7.36019C20.8741 6.96949 20.3442 6.75 19.7917 6.75H17.7083M21.875 10.9167C20.4865 10.9167 17.7083 10.0833 17.7083 6.75M21.875 10.9167V13M7.29167 19.25H11.4583" stroke="#413DE5" stroke-width="2.08333" stroke-linecap="round" stroke-linejoin="round"/>
<path d="M12.5 15.0832C13.6506 15.0832 14.5833 14.1504 14.5833 12.9998C14.5833 11.8492 13.6506 10.9165 12.5 10.9165C11.3494 10.9165 10.4166 11.8492 10.4166 12.9998C10.4166 14.1504 11.3494 15.0832 12.5 15.0832Z" stroke="#413DE5" stroke-width="2.08333" stroke-linecap="round" stroke-linejoin="round"/>
<path d="M18.75 16.125V19.25M18.75 19.25V22.375M18.75 19.25H15.625M18.75 19.25H21.875" stroke="#413DE5" stroke-width="2.08333" stroke-linecap="round" stroke-linejoin="round"/>
</svg>
