<svg width="15" height="15" viewBox="0 0 15 15" fill="none" xmlns="http://www.w3.org/2000/svg">
<path d="M10.478 5.60198V4.44492C10.478 2.82502 9.2052 1.55225 7.5853 1.55225C5.96541 1.55225 4.69263 2.82502 4.69263 4.44492V5.60198C3.70913 5.60198 2.95703 6.35408 2.95703 7.33759V11.3873C2.95703 12.3708 3.70913 13.1229 4.69263 13.1229H10.478C11.4615 13.1229 12.2136 12.3708 12.2136 11.3873V7.33759C12.2136 6.35408 11.4615 5.60198 10.478 5.60198ZM5.8497 4.44492C5.8497 3.46141 6.6018 2.70931 7.5853 2.70931C8.56881 2.70931 9.32091 3.46141 9.32091 4.44492V5.60198H5.8497V4.44492ZM8.22169 9.36246L8.16384 9.42031V10.2303C8.16384 10.5774 7.93242 10.8088 7.5853 10.8088C7.23818 10.8088 7.00677 10.5774 7.00677 10.2303V9.42031C6.65965 9.07319 6.6018 8.55251 6.94892 8.20539C7.29604 7.85827 7.81672 7.80041 8.16384 8.14753C8.51096 8.4368 8.56881 9.01534 8.22169 9.36246Z" fill="#C2C7D0"/>
</svg>
