<svg width="30" height="20" viewBox="0 0 30 20" fill="none" xmlns="http://www.w3.org/2000/svg">
<g clip-path="url(#clip0_1508_205)">
<path d="M14.883 12.1065C15.7533 12.1065 16.5879 11.8845 17.2032 11.4895C17.8186 11.0944 18.1643 10.5586 18.1643 9.99996C18.1643 9.93827 18.1599 9.87714 18.1517 9.81677L14.5977 12.0984C14.6917 12.1036 14.7867 12.1065 14.883 12.1065ZM25.744 3.48409L24.4924 2.68136C24.4485 2.65317 24.3889 2.63733 24.3267 2.63733C24.2646 2.63733 24.205 2.65317 24.1611 2.68136L20.9583 4.73803C19.1915 4.15836 17.2055 3.86853 15.0002 3.86853C9.36937 3.86853 5.1682 5.75122 2.39671 9.51659C2.28531 9.66803 2.22754 9.83342 2.22754 10.0009C2.22754 10.1684 2.28531 10.3338 2.39671 10.4852C3.50414 11.9827 4.83763 13.183 6.3972 14.086L3.29789 16.075C3.25397 16.1032 3.22929 16.1414 3.22929 16.1813C3.22929 16.2212 3.25397 16.2595 3.29789 16.2877L4.54857 17.0906C4.59252 17.1188 4.65211 17.1346 4.71424 17.1346C4.77638 17.1346 4.83597 17.1188 4.87992 17.0906L25.744 3.697C25.7658 3.68303 25.7831 3.66643 25.7949 3.64816C25.8067 3.6299 25.8127 3.61032 25.8127 3.59055C25.8127 3.57077 25.8067 3.55119 25.7949 3.53293C25.7831 3.51466 25.7658 3.49807 25.744 3.48409ZM9.72679 9.99996C9.72671 9.4282 9.95731 8.86618 10.3961 8.36865C10.835 7.87112 11.467 7.45503 12.2308 7.16094C12.9945 6.86684 13.8639 6.70475 14.7542 6.69047C15.6446 6.67619 16.5255 6.8102 17.3112 7.07944L15.8868 7.99389C15.3123 7.8758 14.6983 7.86158 14.1121 7.95279C13.5259 8.04399 12.9901 8.23709 12.5636 8.51091C12.1371 8.78472 11.8363 9.12867 11.6942 9.50501C11.5521 9.88135 11.5743 10.2755 11.7582 10.6443L10.3338 11.5588C9.9341 11.0793 9.72555 10.5438 9.72679 9.99996Z" fill="#C2C7D0"/>
<path d="M27.6038 9.51472C26.5725 8.12042 25.3451 6.98347 23.9215 6.10388L19.6986 8.81506C20.0546 9.41243 20.1335 10.0632 19.9258 10.6887C19.7181 11.3143 19.2327 11.8878 18.5282 12.3401C17.8238 12.7923 16.9304 13.104 15.956 13.2373C14.9816 13.3706 13.9679 13.32 13.0374 13.0915L9.45557 15.3909C11.1173 15.8846 12.9655 16.1314 15.0003 16.1314C20.6311 16.1314 24.8323 14.2487 27.6038 10.4833C27.7152 10.3319 27.773 10.1665 27.773 9.99903C27.773 9.83155 27.7152 9.66616 27.6038 9.51472Z" fill="#C2C7D0"/>
</g>
<defs>
<clipPath id="clip0_1508_205">
<rect width="30" height="19.2595" fill="white" transform="translate(0 0.370239)"/>
</clipPath>
</defs>
</svg>
