<svg width="30" height="21" viewBox="0 0 30 21" fill="none" xmlns="http://www.w3.org/2000/svg">
<g clip-path="url(#clip0_1508_717)">
<path d="M9.21968 9.62744C9.21968 10.3158 9.49313 10.976 9.97987 11.4627C10.4666 11.9494 11.1268 12.2229 11.8151 12.2229C12.5035 12.2229 13.1637 11.9494 13.6504 11.4627C14.1371 10.976 14.4106 10.3158 14.4106 9.62744C14.4106 8.93908 14.1371 8.27892 13.6504 7.79218C13.1637 7.30543 12.5035 7.03199 11.8151 7.03199C11.1268 7.03199 10.4666 7.30543 9.97987 7.79218C9.49313 8.27892 9.21968 8.93908 9.21968 9.62744ZM21.8772 9.02956C19.6803 4.40177 16.3595 2.07281 11.9078 2.07281C7.45384 2.07281 4.13537 4.40177 1.9385 9.03187C1.85039 9.21846 1.80469 9.42225 1.80469 9.6286C1.80469 9.83495 1.85039 10.0387 1.9385 10.2253C4.13537 14.8531 7.45616 17.1821 11.9078 17.1821C16.3618 17.1821 19.6803 14.8531 21.8772 10.223C22.0556 9.84759 22.0556 9.41192 21.8772 9.02956ZM11.8151 13.706C9.56265 13.706 7.73656 11.8799 7.73656 9.62744C7.73656 7.37496 9.56265 5.54887 11.8151 5.54887C14.0676 5.54887 15.8937 7.37496 15.8937 9.62744C15.8937 11.8799 14.0676 13.706 11.8151 13.706Z" fill="#C2C7D0"/>
</g>
<defs>
<clipPath id="clip0_1508_717">
<rect width="30" height="19.2595" fill="white" transform="translate(0 0.88562)"/>
</clipPath>
</defs>
</svg>
