<svg width="28" height="28" viewBox="0 0 28 28" fill="none" xmlns="http://www.w3.org/2000/svg">
<path d="M12.2138 2.03809C10.7234 2.06319 9.37719 2.95212 8.76819 4.32664L16.0601 6.52918C16.3807 4.61725 15.2321 2.76354 13.3838 2.20102C13.0525 2.10059 12.7053 2.04556 12.3581 2.03809H12.2138ZM8.4904 5.24761C8.16453 7.16489 9.31308 9.02393 11.1668 9.58485C13.0258 10.1458 15.0077 9.22693 15.7877 7.44802L8.4904 5.24761ZM22.6736 7.61362C21.3221 7.61897 19.8851 8.2707 18.8006 9.80388L12.1337 19.254C10.3441 21.7862 11.1241 24.4359 12.8869 25.6859C14.6552 26.9413 17.4063 26.7971 19.1959 24.2649L25.8575 14.8201C27.6471 12.2826 26.8672 9.63827 25.1043 8.38288C24.4419 7.91278 23.6459 7.64033 22.8072 7.61362H22.6736ZM22.5775 8.5378C22.6469 8.5378 22.7164 8.5378 22.7805 8.54315C23.4269 8.56986 24.0359 8.79957 24.5487 9.16817C25.9216 10.1404 26.6108 12.0796 25.0669 14.2645L21.6213 19.1525C19.7088 18.6397 17.2514 16.8928 16.1349 15.2528L19.5913 10.3595C20.4941 9.0827 21.5678 8.55917 22.5775 8.5378ZM5.47479 12.6085C4.96088 12.6138 4.45392 12.7207 3.98275 12.929C2.21398 13.7036 1.29354 15.6802 1.83309 17.5392L8.81627 14.4889C8.11646 13.3083 6.84504 12.5924 5.47479 12.6085ZM9.19556 15.365L2.21345 18.4207C3.19906 20.0981 5.27447 20.7712 7.05338 19.9966C8.82695 19.2166 9.74579 17.2294 9.19556 15.365Z" fill="#091E42"/>
</svg>
