<svg width="20" height="21" viewBox="0 0 20 21" fill="none" xmlns="http://www.w3.org/2000/svg">
<path d="M10 2.16675C14.6025 2.16675 18.3334 5.89758 18.3334 10.5001C18.3334 15.1026 14.6025 18.8334 10 18.8334C5.39752 18.8334 1.66669 15.1026 1.66669 10.5001C1.66669 5.89758 5.39752 2.16675 10 2.16675ZM10 4.66675C8.86213 4.66666 7.74907 4.99937 6.79789 5.6239C5.84671 6.24844 5.09896 7.13753 4.64672 8.18169C4.19448 9.22584 4.0575 10.3795 4.25264 11.5005C4.44779 12.6215 4.96654 13.661 5.74502 14.4909L5.87502 14.6242L7.05335 13.4467C6.4042 12.7982 5.98729 11.9535 5.86734 11.0438C5.7474 10.134 5.93111 9.21012 6.38999 8.41548C6.84886 7.62084 7.55721 6.9999 8.4051 6.64904C9.25299 6.29818 10.193 6.23703 11.0792 6.47508L12.3817 5.17341C11.6324 4.83863 10.8207 4.66597 10 4.66675ZM15.3267 8.11925L14.0259 9.42091C14.1175 9.76508 14.1667 10.1267 14.1667 10.5001C14.1667 11.6501 13.7 12.6917 12.9467 13.4467L14.125 14.6251C14.6673 14.0839 15.0974 13.4408 15.3906 12.733C15.6838 12.0251 15.8342 11.2663 15.8334 10.5001C15.8346 9.67958 15.662 8.86813 15.3267 8.11925ZM13.535 5.78591L10.4309 8.88925C10.1839 8.82351 9.92514 8.81538 9.67454 8.86549C9.42395 8.9156 9.18821 9.02262 8.98553 9.17827C8.78284 9.33393 8.61863 9.53407 8.50555 9.76325C8.39248 9.99243 8.33356 10.2445 8.33335 10.5001C8.33379 10.737 8.38475 10.9712 8.48283 11.1869C8.58091 11.4026 8.72386 11.5949 8.90214 11.751C9.08042 11.9071 9.28993 12.0234 9.51671 12.0921C9.74348 12.1608 9.9823 12.1803 10.2172 12.1495C10.4522 12.1186 10.6778 12.038 10.8791 11.913C11.0804 11.788 11.2528 11.6215 11.3847 11.4246C11.5166 11.2278 11.6049 11.0051 11.644 10.7713C11.683 10.5376 11.6717 10.2983 11.6109 10.0692L14.7142 6.96425L13.535 5.78591Z" fill="#243757"/>
</svg>
