<svg width="23" height="24" viewBox="0 0 23 24" fill="none" xmlns="http://www.w3.org/2000/svg">
<path d="M16.9041 16.3284L20.9194 20.3428L19.5928 21.6694L15.5784 17.6541C14.0848 18.8515 12.2269 19.5027 10.3125 19.5C5.655 19.5 1.875 15.72 1.875 11.0625C1.875 6.405 5.655 2.625 10.3125 2.625C14.97 2.625 18.75 6.405 18.75 11.0625C18.7527 12.9769 18.1015 14.8348 16.9041 16.3284ZM15.0234 15.6328C16.2132 14.4093 16.8777 12.7692 16.875 11.0625C16.875 7.43625 13.9378 4.5 10.3125 4.5C6.68625 4.5 3.75 7.43625 3.75 11.0625C3.75 14.6878 6.68625 17.625 10.3125 17.625C12.0192 17.6277 13.6593 16.9632 14.8828 15.7734L15.0234 15.6328Z" fill="#413DE5"/>
</svg>
