<svg width="20" height="21" viewBox="0 0 20 21" fill="none" xmlns="http://www.w3.org/2000/svg">
<path d="M2.5 3.9375C2.5 2.73 3.48 1.75 4.6875 1.75H7.8125C8.06114 1.75 8.2996 1.84877 8.47541 2.02459C8.65123 2.2004 8.75 2.43886 8.75 2.6875C8.75 2.93614 8.65123 3.1746 8.47541 3.35041C8.2996 3.52623 8.06114 3.625 7.8125 3.625H4.6875C4.60462 3.625 4.52513 3.65792 4.46653 3.71653C4.40792 3.77513 4.375 3.85462 4.375 3.9375V17.0625C4.375 17.235 4.515 17.375 4.6875 17.375H7.8125C8.06114 17.375 8.2996 17.4738 8.47541 17.6496C8.65123 17.8254 8.75 18.0639 8.75 18.3125C8.75 18.5611 8.65123 18.7996 8.47541 18.9754C8.2996 19.1512 8.06114 19.25 7.8125 19.25H4.6875C4.10734 19.25 3.55094 19.0195 3.1407 18.6093C2.73047 18.1991 2.5 17.6427 2.5 17.0625V3.9375ZM15.55 9.5625L13.0875 7.1C12.9641 6.98541 12.8739 6.83966 12.8264 6.6781C12.7788 6.51654 12.7758 6.34515 12.8175 6.18199C12.8592 6.01884 12.9442 5.86996 13.0634 5.75103C13.1826 5.63211 13.3317 5.54754 13.495 5.50625C13.658 5.46448 13.8292 5.46739 13.9906 5.51469C14.1521 5.56198 14.2978 5.6519 14.4125 5.775L18.475 9.8375C18.6506 10.0133 18.7492 10.2516 18.7492 10.5C18.7492 10.7484 18.6506 10.9867 18.475 11.1625L14.4125 15.225C14.2979 15.3484 14.1522 15.4386 13.9906 15.4861C13.829 15.5337 13.6576 15.5367 13.4945 15.495C13.3313 15.4533 13.1825 15.3683 13.0635 15.2491C12.9446 15.1299 12.86 14.9808 12.8188 14.8175C12.777 14.6545 12.7799 14.4833 12.8272 14.3219C12.8745 14.1604 12.9644 14.0147 13.0875 13.9L15.55 11.4375H8.4375C8.18886 11.4375 7.9504 11.3387 7.77459 11.1629C7.59877 10.9871 7.5 10.7486 7.5 10.5C7.5 10.2514 7.59877 10.0129 7.77459 9.83709C7.9504 9.66127 8.18886 9.5625 8.4375 9.5625H15.55Z" fill="#E53D3D"/>
</svg>
