<svg width="26" height="26" viewBox="0 0 26 26" fill="none" xmlns="http://www.w3.org/2000/svg">
<path d="M18.0949 17.0184C18.1657 17.0889 18.2219 17.1728 18.2602 17.2651C18.2985 17.3574 18.3182 17.4564 18.3182 17.5563C18.3182 17.6563 18.2985 17.7553 18.2602 17.8476C18.2219 17.9399 18.1657 18.0237 18.0949 18.0943C17.9516 18.2358 17.7583 18.3151 17.5569 18.3151C17.3555 18.3151 17.1623 18.2358 17.0189 18.0943L13.0001 14.0754L8.98118 18.0943C8.83787 18.2358 8.6446 18.3151 8.44322 18.3151C8.24185 18.3151 8.04858 18.2358 7.90526 18.0943C7.83446 18.0237 7.77828 17.9399 7.73995 17.8476C7.70162 17.7553 7.68188 17.6563 7.68188 17.5563C7.68188 17.4564 7.70162 17.3574 7.73995 17.2651C7.77828 17.1728 7.83446 17.0889 7.90526 17.0184L11.9241 12.9995L7.90526 8.98063C7.76259 8.83796 7.68243 8.64445 7.68243 8.44267C7.68243 8.34277 7.70211 8.24384 7.74034 8.15153C7.77858 8.05923 7.83462 7.97536 7.90526 7.90472C7.97591 7.83407 8.05978 7.77803 8.15208 7.7398C8.24438 7.70156 8.34331 7.68188 8.44322 7.68188C8.645 7.68188 8.83851 7.76204 8.98118 7.90472L13.0001 11.9236L17.0189 7.90472C17.1616 7.76204 17.3551 7.68188 17.5569 7.68188C17.7587 7.68188 17.9522 7.76204 18.0949 7.90472C18.2375 8.04739 18.3177 8.2409 18.3177 8.44267C18.3177 8.64445 18.2375 8.83796 18.0949 8.98063L14.076 12.9995L18.0949 17.0184Z" fill="#413DE5"/>
<circle cx="13" cy="13" r="12" stroke="#413DE5" stroke-width="2"/>
</svg>
